<svg width="322" height="429" viewBox="0 0 322 429" fill="none" xmlns="http://www.w3.org/2000/svg">
<path d="M1 24L15.9645 39.573L25.2668 28.2472L36.3891 39.573L48.5225 28.2472L62.0714 42" stroke="#E7E7E7" stroke-width="2.57143"/>
<circle cx="289" cy="14" r="12.95" stroke="white" stroke-width="2.1"/>
<circle cx="296.7" cy="28" r="13.65" stroke="white" stroke-width="0.7"/>
<path d="M302.5 331.5C303.397 331.5 304.125 332.228 304.125 333.125V342.875H313.875C314.772 342.875 315.5 343.603 315.5 344.5C315.5 345.397 314.772 346.125 313.875 346.125H304.125V355.875C304.125 356.772 303.397 357.5 302.5 357.5C301.603 357.5 300.875 356.772 300.875 355.875V346.125H291.125C290.228 346.125 289.5 345.397 289.5 344.5C289.5 343.603 290.228 342.875 291.125 342.875H300.875V333.125C300.875 332.228 301.603 331.5 302.5 331.5Z" fill="#E7E7E7"/>
<path d="M21.075 401.857L21.9241 365.59L52.9077 384.459L21.075 401.857Z" stroke="#E7E7E7" stroke-width="1.87563" stroke-linejoin="round"/>
<path d="M23.9231 416.055L24.8228 377.622L57.6563 397.618L23.9231 416.055Z" stroke="#E7E7E7" stroke-width="0.62521" stroke-linejoin="round"/>
</svg>
